<svg width="64" height="65" viewBox="0 0 64 65" fill="none" xmlns="http://www.w3.org/2000/svg">
<path fill-rule="evenodd" clip-rule="evenodd" d="M4.507 1.341C3.245 5.014 0 19.226 0 21.085C0 24.515 5.259 29.091 9.201 29.091C16.637 29.091 18.985 24.355 18.994 9.341L19 0.091H11.969C7.239 0.091 4.797 0.5 4.507 1.341ZM23.166 12.18C23.493 24.005 23.561 24.321 26.306 26.68C30.39 30.189 35.117 29.929 38.411 26.014C40.866 23.097 41 22.345 41 11.514V0.091H31.916H22.833L23.166 12.18ZM46 12.091C46 23.595 46.119 24.301 48.455 26.636C52.001 30.183 57.257 29.988 61.077 26.168C64.575 22.67 64.625 21.248 61.666 9.591L59.381 0.591L52.69 0.295L46 0V12.091ZM18.024 30.705C15.265 33.358 10.313 34.637 6.507 33.682L4 33.053V48.572V64.091H12.5H21V53.091V42.091H32H43V53.091V64.091H51.5H60V48.616V33.141L57.037 33.734C53.032 34.535 49.737 33.582 46.193 30.6C43.551 28.377 43.091 28.276 41.938 29.665C37.265 35.297 28.643 35.482 22.5 30.083C20.579 28.395 20.402 28.42 18.024 30.705ZM26 55.091V64.091H32H38V55.091V46.091H32H26V55.091Z" fill="white"/>
</svg>
