<svg width="58" height="58" viewBox="0 0 58 58" fill="none" xmlns="http://www.w3.org/2000/svg">
<path fill-rule="evenodd" clip-rule="evenodd" d="M19.1871 1.25691C10.9171 4.49991 6.40113 8.47691 2.52713 15.9289C-0.868873 22.4599 -0.836874 35.4249 2.59113 42.1319C5.50713 47.8379 9.69013 51.9769 15.6871 55.0919C19.3711 57.0049 21.7281 57.4289 28.6871 57.4289C38.0921 57.4289 43.3271 55.4879 49.2831 49.7939C57.3261 42.1059 60.0781 27.8119 55.4531 17.7499C51.9671 10.1669 48.4811 6.48191 41.4871 2.98691C36.4331 0.460909 34.2211 -0.0580914 28.7771 0.00490863C25.1531 0.0469086 20.8371 0.609909 19.1871 1.25691ZM31.0801 14.5109C31.4141 15.3809 31.6871 18.3059 31.6871 21.0109V25.9289H36.6051C42.7441 25.9289 44.6871 26.6499 44.6871 28.9289C44.6871 31.2079 42.7441 31.9289 36.6051 31.9289H31.6871V36.8469C31.6871 42.9859 30.9661 44.9289 28.6871 44.9289C26.4081 44.9289 25.6871 42.9859 25.6871 36.8469V31.9289H20.7691C14.6301 31.9289 12.6871 31.2079 12.6871 28.9289C12.6871 26.6499 14.6301 25.9289 20.7691 25.9289H25.6871V21.0109C25.6871 18.3059 25.9601 15.3809 26.2941 14.5109C27.0791 12.4649 30.2951 12.4649 31.0801 14.5109Z" fill="white"/>
</svg>
