<svg width="48" height="60" viewBox="0 0 48 60" fill="none" xmlns="http://www.w3.org/2000/svg">
<path fill-rule="evenodd" clip-rule="evenodd" d="M19.8736 0.563632C16.7636 1.79963 12.8766 6.37863 12.2926 9.49163C11.7856 12.1936 11.1336 12.8266 8.31164 13.3566C1.85864 14.5666 2.23464 13.0536 0.321639 45.5856C-0.552361 60.4586 -1.45336 59.9106 23.8736 59.9106C49.2006 59.9106 48.2996 60.4586 47.4256 45.5856C45.5126 13.0536 45.8886 14.5666 39.4356 13.3566C36.6136 12.8266 35.9616 12.1936 35.4546 9.49163C34.2846 3.25363 25.6106 -1.71637 19.8736 0.563632ZM29.4186 6.36563C30.7686 7.71563 31.8736 9.74063 31.8736 10.8656C31.8736 12.7556 31.2666 12.9106 23.8736 12.9106C16.4806 12.9106 15.8736 12.7556 15.8736 10.8656C15.8736 9.74063 16.9786 7.71563 18.3286 6.36563C21.5756 3.11763 26.1716 3.11763 29.4186 6.36563ZM41.9896 22.4566C42.3286 25.2326 42.7786 33.7826 42.9896 41.4566L43.3736 55.4106L24.4466 55.6836C14.0366 55.8336 5.17064 55.6076 4.74464 55.1816C3.42764 53.8646 5.64164 18.6776 7.09964 17.7366C7.80064 17.2846 15.7986 17.0266 24.8736 17.1626L41.3736 17.4106L41.9896 22.4566ZM12.3566 22.9376C11.2196 24.7786 15.3366 30.3656 19.2496 32.2896C22.4596 33.8686 23.6616 33.9916 26.7816 33.0566C31.1836 31.7376 34.7136 28.2816 35.0976 24.9146C35.5046 21.3436 32.6446 21.2486 31.0866 24.7816C28.3246 31.0426 20.6056 31.1176 17.0776 24.9176C15.3406 21.8656 13.4976 21.0926 12.3566 22.9376Z" fill="white"/>
</svg>
